 <svg
  width="160"
  height="160"
  viewBox="0 0 160 160"
  fill="none"
  xmlns="http://www.w3.org/2000/svg"
>
  <rect width="160" height="160" rx="40" fill="black"></rect>
  <path
    d="M123.545 67.6364H100.818C100.515 65.303 99.8939 63.197 98.9545 61.3182C98.0152 59.4394 96.7727 57.8333 95.2273 56.5C93.6818 55.1667 91.8485 54.1515 89.7273 53.4545C87.6364 52.7273 85.3182 52.3636 82.7727 52.3636C78.2576 52.3636 74.3636 53.4697 71.0909 55.6818C67.8485 57.8939 65.3485 61.0909 63.5909 65.2727C61.8636 69.4545 61 74.5151 61 80.4545C61 86.6364 61.8788 91.8182 63.6364 96C65.4242 100.152 67.9242 103.288 71.1364 105.409C74.3788 107.5 78.2121 108.545 82.6364 108.545C85.1212 108.545 87.3788 108.227 89.4091 107.591C91.4697 106.955 93.2727 106.03 94.8182 104.818C96.3939 103.576 97.6818 102.076 98.6818 100.318C99.7121 98.5303 100.424 96.5152 100.818 94.2727L123.545 94.4091C123.152 98.5303 121.955 102.591 119.955 106.591C117.985 110.591 115.273 114.242 111.818 117.545C108.364 120.818 104.152 123.424 99.1818 125.364C94.2424 127.303 88.5758 128.273 82.1818 128.273C73.7576 128.273 66.2121 126.424 59.5455 122.727C52.9091 119 47.6667 113.576 43.8182 106.455C39.9697 99.3333 38.0455 90.6667 38.0455 80.4545C38.0455 70.2121 40 61.5303 43.9091 54.4091C47.8182 47.2879 53.1061 41.8788 59.7727 38.1818C66.4394 34.4848 73.9091 32.6364 82.1818 32.6364C87.8182 32.6364 93.0303 33.4242 97.8182 35C102.606 36.5455 106.818 38.8182 110.455 41.8182C114.091 44.7879 117.045 48.4394 119.318 52.7727C121.591 57.1061 123 62.0606 123.545 67.6364Z"
    fill="white"></path>
</svg>